<mxfile host="app.diagrams.net" agent="Mozilla/5.0 (Windows NT 10.0; Win64; x64) AppleWebKit/537.36 (KHTML, like Gecko) Chrome/129.0.0.0 Safari/537.36" version="24.7.17">
  <diagram name="페이지-1" id="gs1mectcEGeimiHJpjWC">
    <mxGraphModel dx="1728" dy="982" grid="0" gridSize="10" guides="1" tooltips="1" connect="1" arrows="1" fold="1" page="1" pageScale="1" pageWidth="1200" pageHeight="1920" math="0" shadow="0">
      <root>
        <mxCell id="0" />
        <mxCell id="1" parent="0" />
        <mxCell id="NuBGhkhx8Y5m-b2giT-t-1" value="settinghmi" style="rounded=0;whiteSpace=wrap;html=1;fontSize=15;" vertex="1" parent="1">
          <mxGeometry x="120" y="40" width="120" height="40" as="geometry" />
        </mxCell>
        <mxCell id="NuBGhkhx8Y5m-b2giT-t-2" value="CLU" style="rounded=0;whiteSpace=wrap;html=1;fontSize=15;" vertex="1" parent="1">
          <mxGeometry x="960" y="40" width="120" height="40" as="geometry" />
        </mxCell>
        <mxCell id="NuBGhkhx8Y5m-b2giT-t-3" value="" style="endArrow=none;html=1;rounded=0;entryX=0.5;entryY=1;entryDx=0;entryDy=0;strokeColor=#B3B3B3;" edge="1" parent="1" target="NuBGhkhx8Y5m-b2giT-t-1">
          <mxGeometry width="50" height="50" relative="1" as="geometry">
            <mxPoint x="180" y="1602.5" as="sourcePoint" />
            <mxPoint x="420" y="270" as="targetPoint" />
          </mxGeometry>
        </mxCell>
        <mxCell id="NuBGhkhx8Y5m-b2giT-t-4" value="alt" style="swimlane;horizontal=0;whiteSpace=wrap;html=1;fontSize=11;" vertex="1" parent="1">
          <mxGeometry x="40" y="120" width="240" height="80" as="geometry" />
        </mxCell>
        <mxCell id="NuBGhkhx8Y5m-b2giT-t-5" value="&amp;nbsp;[ TBD ]" style="text;html=1;align=center;verticalAlign=middle;whiteSpace=wrap;rounded=0;fontSize=9;fontColor=#FF3333;" vertex="1" parent="NuBGhkhx8Y5m-b2giT-t-4">
          <mxGeometry x="25" width="115" height="20" as="geometry" />
        </mxCell>
        <mxCell id="NuBGhkhx8Y5m-b2giT-t-6" value="" style="endArrow=classic;html=1;rounded=0;fontSize=5;" edge="1" parent="NuBGhkhx8Y5m-b2giT-t-4">
          <mxGeometry relative="1" as="geometry">
            <mxPoint x="140" y="30" as="sourcePoint" />
            <mxPoint x="140" y="70" as="targetPoint" />
            <Array as="points">
              <mxPoint x="80" y="30" />
              <mxPoint x="80" y="70" />
            </Array>
          </mxGeometry>
        </mxCell>
        <mxCell id="NuBGhkhx8Y5m-b2giT-t-7" value="Disable &quot;Start&quot; Button" style="edgeLabel;resizable=0;html=1;;align=center;verticalAlign=middle;fontSize=9;labelBorderColor=default;labelBackgroundColor=#FFF2CC;" connectable="0" vertex="1" parent="NuBGhkhx8Y5m-b2giT-t-6">
          <mxGeometry relative="1" as="geometry" />
        </mxCell>
        <mxCell id="NuBGhkhx8Y5m-b2giT-t-8" value="" style="endArrow=classic;html=1;rounded=0;" edge="1" parent="1">
          <mxGeometry width="50" height="50" relative="1" as="geometry">
            <mxPoint x="180" y="110" as="sourcePoint" />
            <mxPoint x="1020" y="110" as="targetPoint" />
          </mxGeometry>
        </mxCell>
        <mxCell id="NuBGhkhx8Y5m-b2giT-t-9" value="&lt;span style=&quot;color: rgb(23, 43, 77); font-family: &amp;quot;Source Sans Pro&amp;quot;, &amp;quot;Lucida Sans Unicode&amp;quot;, Arial, NG; font-size: 9px; text-align: start;&quot;&gt;OperationConditions(TimerType = PERFORMANCE, RefTimeType = BEST, UnitOfDist = VAL_FROM_USM, Status = STOP)&lt;/span&gt;" style="edgeLabel;html=1;align=center;verticalAlign=middle;resizable=0;points=[];" vertex="1" connectable="0" parent="NuBGhkhx8Y5m-b2giT-t-8">
          <mxGeometry x="-0.1423" y="-1" relative="1" as="geometry">
            <mxPoint y="-11" as="offset" />
          </mxGeometry>
        </mxCell>
        <mxCell id="NuBGhkhx8Y5m-b2giT-t-10" value="" style="endArrow=none;html=1;rounded=0;entryX=0.5;entryY=1;entryDx=0;entryDy=0;strokeColor=#B3B3B3;" edge="1" parent="1">
          <mxGeometry width="50" height="50" relative="1" as="geometry">
            <mxPoint x="1020" y="1600" as="sourcePoint" />
            <mxPoint x="1019.69" y="80" as="targetPoint" />
          </mxGeometry>
        </mxCell>
        <mxCell id="NuBGhkhx8Y5m-b2giT-t-11" value="Performance Timer - RUNNING" style="shape=link;html=1;rounded=0;fontSize=13;labelBorderColor=default;labelBackgroundColor=#E6E6E6;" edge="1" parent="1">
          <mxGeometry width="100" relative="1" as="geometry">
            <mxPoint x="40" y="220" as="sourcePoint" />
            <mxPoint x="1160" y="220" as="targetPoint" />
            <mxPoint as="offset" />
          </mxGeometry>
        </mxCell>
        <mxCell id="NuBGhkhx8Y5m-b2giT-t-12" value="loop" style="swimlane;horizontal=0;whiteSpace=wrap;html=1;fontSize=11;" vertex="1" parent="1">
          <mxGeometry x="40" y="360" width="1120" height="660" as="geometry" />
        </mxCell>
        <mxCell id="NuBGhkhx8Y5m-b2giT-t-13" value="&amp;nbsp;[ TIMER_RUNNING ]" style="text;html=1;align=center;verticalAlign=middle;whiteSpace=wrap;rounded=0;fontSize=9;fontColor=#000000;" vertex="1" parent="NuBGhkhx8Y5m-b2giT-t-12">
          <mxGeometry x="30" width="110" height="20" as="geometry" />
        </mxCell>
        <mxCell id="NuBGhkhx8Y5m-b2giT-t-14" value="alt" style="swimlane;horizontal=0;whiteSpace=wrap;html=1;fontSize=11;" vertex="1" parent="NuBGhkhx8Y5m-b2giT-t-12">
          <mxGeometry x="40" y="40" width="1060" height="600" as="geometry" />
        </mxCell>
        <mxCell id="NuBGhkhx8Y5m-b2giT-t-15" value="&lt;font color=&quot;#000000&quot;&gt;&amp;nbsp;[ Approach Speed 100 km/h ]&lt;/font&gt;" style="text;html=1;align=center;verticalAlign=middle;whiteSpace=wrap;rounded=0;fontSize=9;fontColor=#FF3333;" vertex="1" parent="NuBGhkhx8Y5m-b2giT-t-14">
          <mxGeometry x="25" width="135" height="20" as="geometry" />
        </mxCell>
        <mxCell id="NuBGhkhx8Y5m-b2giT-t-16" value="" style="endArrow=classic;html=1;rounded=0;" edge="1" parent="NuBGhkhx8Y5m-b2giT-t-14">
          <mxGeometry width="50" height="50" relative="1" as="geometry">
            <mxPoint x="100" y="39.68000000000001" as="sourcePoint" />
            <mxPoint x="940" y="39.68000000000001" as="targetPoint" />
          </mxGeometry>
        </mxCell>
        <mxCell id="NuBGhkhx8Y5m-b2giT-t-17" value="&lt;div style=&quot;text-align: start;&quot;&gt;&lt;div&gt;OperationConditions(Status = &quot;RUNNING_SECTOR_HIT&quot;)&lt;/div&gt;&lt;/div&gt;" style="edgeLabel;html=1;align=center;verticalAlign=middle;resizable=0;points=[];" vertex="1" connectable="0" parent="NuBGhkhx8Y5m-b2giT-t-16">
          <mxGeometry x="-0.1423" y="-1" relative="1" as="geometry">
            <mxPoint x="60" y="-11" as="offset" />
          </mxGeometry>
        </mxCell>
        <mxCell id="NuBGhkhx8Y5m-b2giT-t-18" value="" style="endArrow=classic;html=1;rounded=0;" edge="1" parent="NuBGhkhx8Y5m-b2giT-t-14">
          <mxGeometry width="50" height="50" relative="1" as="geometry">
            <mxPoint x="100" y="70" as="sourcePoint" />
            <mxPoint x="940" y="70" as="targetPoint" />
          </mxGeometry>
        </mxCell>
        <mxCell id="NuBGhkhx8Y5m-b2giT-t-19" value="&lt;div style=&quot;text-align: start;&quot;&gt;&lt;div&gt;PerformanceTime(Zero100 = MEASURED_TIME)&lt;/div&gt;&lt;/div&gt;" style="edgeLabel;html=1;align=center;verticalAlign=middle;resizable=0;points=[];" vertex="1" connectable="0" parent="NuBGhkhx8Y5m-b2giT-t-18">
          <mxGeometry x="-0.1423" y="-1" relative="1" as="geometry">
            <mxPoint x="60" y="-11" as="offset" />
          </mxGeometry>
        </mxCell>
        <mxCell id="NuBGhkhx8Y5m-b2giT-t-20" value="" style="endArrow=classic;html=1;rounded=0;fontSize=5;" edge="1" parent="NuBGhkhx8Y5m-b2giT-t-14">
          <mxGeometry relative="1" as="geometry">
            <mxPoint x="100" y="100" as="sourcePoint" />
            <mxPoint x="100" y="140" as="targetPoint" />
            <Array as="points">
              <mxPoint x="40" y="100" />
              <mxPoint x="40" y="140" />
            </Array>
          </mxGeometry>
        </mxCell>
        <mxCell id="NuBGhkhx8Y5m-b2giT-t-21" value="Update time value on 0-100 km/h" style="edgeLabel;resizable=0;html=1;;align=center;verticalAlign=middle;fontSize=9;labelBorderColor=default;labelBackgroundColor=#FFF2CC;" connectable="0" vertex="1" parent="NuBGhkhx8Y5m-b2giT-t-20">
          <mxGeometry relative="1" as="geometry">
            <mxPoint x="30" as="offset" />
          </mxGeometry>
        </mxCell>
        <mxCell id="NuBGhkhx8Y5m-b2giT-t-22" value="&lt;font color=&quot;#000000&quot;&gt;&amp;nbsp;[ Approach Point = 200m ]&lt;/font&gt;" style="text;html=1;align=center;verticalAlign=middle;whiteSpace=wrap;rounded=0;fontSize=9;fontColor=#FF3333;" vertex="1" parent="NuBGhkhx8Y5m-b2giT-t-14">
          <mxGeometry x="25" y="160" width="135" height="20" as="geometry" />
        </mxCell>
        <mxCell id="NuBGhkhx8Y5m-b2giT-t-23" value="" style="endArrow=classic;html=1;rounded=0;" edge="1" parent="NuBGhkhx8Y5m-b2giT-t-14">
          <mxGeometry width="50" height="50" relative="1" as="geometry">
            <mxPoint x="100" y="199.68000000000006" as="sourcePoint" />
            <mxPoint x="940" y="199.68000000000006" as="targetPoint" />
          </mxGeometry>
        </mxCell>
        <mxCell id="NuBGhkhx8Y5m-b2giT-t-24" value="&lt;div style=&quot;text-align: start;&quot;&gt;&lt;div&gt;OperationConditions(Status = &quot;RUNNING_SECTOR_HIT&quot;)&lt;/div&gt;&lt;/div&gt;" style="edgeLabel;html=1;align=center;verticalAlign=middle;resizable=0;points=[];" vertex="1" connectable="0" parent="NuBGhkhx8Y5m-b2giT-t-23">
          <mxGeometry x="-0.1423" y="-1" relative="1" as="geometry">
            <mxPoint x="60" y="-11" as="offset" />
          </mxGeometry>
        </mxCell>
        <mxCell id="NuBGhkhx8Y5m-b2giT-t-25" value="" style="endArrow=classic;html=1;rounded=0;" edge="1" parent="NuBGhkhx8Y5m-b2giT-t-14">
          <mxGeometry width="50" height="50" relative="1" as="geometry">
            <mxPoint x="100" y="230" as="sourcePoint" />
            <mxPoint x="940" y="230" as="targetPoint" />
          </mxGeometry>
        </mxCell>
        <mxCell id="NuBGhkhx8Y5m-b2giT-t-26" value="&lt;div style=&quot;text-align: start;&quot;&gt;&lt;div&gt;PerformanceTime(TwoHundred = MEASURED_TIME)&lt;/div&gt;&lt;/div&gt;" style="edgeLabel;html=1;align=center;verticalAlign=middle;resizable=0;points=[];" vertex="1" connectable="0" parent="NuBGhkhx8Y5m-b2giT-t-25">
          <mxGeometry x="-0.1423" y="-1" relative="1" as="geometry">
            <mxPoint x="60" y="-11" as="offset" />
          </mxGeometry>
        </mxCell>
        <mxCell id="NuBGhkhx8Y5m-b2giT-t-27" value="" style="endArrow=classic;html=1;rounded=0;fontSize=5;" edge="1" parent="NuBGhkhx8Y5m-b2giT-t-14">
          <mxGeometry relative="1" as="geometry">
            <mxPoint x="100" y="290" as="sourcePoint" />
            <mxPoint x="100" y="330" as="targetPoint" />
            <Array as="points">
              <mxPoint x="40" y="290" />
              <mxPoint x="40" y="330" />
            </Array>
          </mxGeometry>
        </mxCell>
        <mxCell id="NuBGhkhx8Y5m-b2giT-t-28" value="Update time value on 200m" style="edgeLabel;resizable=0;html=1;;align=center;verticalAlign=middle;fontSize=9;labelBorderColor=default;labelBackgroundColor=#FFF2CC;" connectable="0" vertex="1" parent="NuBGhkhx8Y5m-b2giT-t-27">
          <mxGeometry relative="1" as="geometry">
            <mxPoint x="30" as="offset" />
          </mxGeometry>
        </mxCell>
        <mxCell id="NuBGhkhx8Y5m-b2giT-t-29" value="" style="endArrow=classic;html=1;rounded=0;" edge="1" parent="NuBGhkhx8Y5m-b2giT-t-14">
          <mxGeometry width="50" height="50" relative="1" as="geometry">
            <mxPoint x="100" y="260" as="sourcePoint" />
            <mxPoint x="940" y="260" as="targetPoint" />
          </mxGeometry>
        </mxCell>
        <mxCell id="NuBGhkhx8Y5m-b2giT-t-30" value="&lt;div style=&quot;text-align: start;&quot;&gt;&lt;div&gt;PerformanceTime(TwoHundredSpd = MEASURED_SPEED)&lt;/div&gt;&lt;/div&gt;" style="edgeLabel;html=1;align=center;verticalAlign=middle;resizable=0;points=[];" vertex="1" connectable="0" parent="NuBGhkhx8Y5m-b2giT-t-29">
          <mxGeometry x="-0.1423" y="-1" relative="1" as="geometry">
            <mxPoint x="60" y="-11" as="offset" />
          </mxGeometry>
        </mxCell>
        <mxCell id="NuBGhkhx8Y5m-b2giT-t-31" value="&lt;font color=&quot;#000000&quot;&gt;&amp;nbsp;[ Approach Point = 400m ]&lt;/font&gt;" style="text;html=1;align=center;verticalAlign=middle;whiteSpace=wrap;rounded=0;fontSize=9;fontColor=#FF3333;" vertex="1" parent="NuBGhkhx8Y5m-b2giT-t-14">
          <mxGeometry x="25" y="360" width="135" height="20" as="geometry" />
        </mxCell>
        <mxCell id="NuBGhkhx8Y5m-b2giT-t-32" value="" style="endArrow=classic;html=1;rounded=0;" edge="1" parent="NuBGhkhx8Y5m-b2giT-t-14">
          <mxGeometry width="50" height="50" relative="1" as="geometry">
            <mxPoint x="100" y="399.68000000000006" as="sourcePoint" />
            <mxPoint x="940" y="399.68000000000006" as="targetPoint" />
          </mxGeometry>
        </mxCell>
        <mxCell id="NuBGhkhx8Y5m-b2giT-t-33" value="&lt;div style=&quot;text-align: start;&quot;&gt;&lt;div&gt;OperationConditions(Status = &quot;FINISH&quot;)&lt;/div&gt;&lt;/div&gt;" style="edgeLabel;html=1;align=center;verticalAlign=middle;resizable=0;points=[];" vertex="1" connectable="0" parent="NuBGhkhx8Y5m-b2giT-t-32">
          <mxGeometry x="-0.1423" y="-1" relative="1" as="geometry">
            <mxPoint x="60" y="-11" as="offset" />
          </mxGeometry>
        </mxCell>
        <mxCell id="NuBGhkhx8Y5m-b2giT-t-34" value="" style="endArrow=classic;html=1;rounded=0;" edge="1" parent="NuBGhkhx8Y5m-b2giT-t-14">
          <mxGeometry width="50" height="50" relative="1" as="geometry">
            <mxPoint x="100" y="430" as="sourcePoint" />
            <mxPoint x="940" y="430" as="targetPoint" />
          </mxGeometry>
        </mxCell>
        <mxCell id="NuBGhkhx8Y5m-b2giT-t-35" value="&lt;div style=&quot;text-align: start;&quot;&gt;&lt;div&gt;PerformanceTime(FourHundred = MEASURED_TIME)&lt;/div&gt;&lt;/div&gt;" style="edgeLabel;html=1;align=center;verticalAlign=middle;resizable=0;points=[];" vertex="1" connectable="0" parent="NuBGhkhx8Y5m-b2giT-t-34">
          <mxGeometry x="-0.1423" y="-1" relative="1" as="geometry">
            <mxPoint x="60" y="-11" as="offset" />
          </mxGeometry>
        </mxCell>
        <mxCell id="NuBGhkhx8Y5m-b2giT-t-36" value="" style="endArrow=classic;html=1;rounded=0;fontSize=5;" edge="1" parent="NuBGhkhx8Y5m-b2giT-t-14">
          <mxGeometry relative="1" as="geometry">
            <mxPoint x="100" y="490" as="sourcePoint" />
            <mxPoint x="100" y="530" as="targetPoint" />
            <Array as="points">
              <mxPoint x="40" y="490" />
              <mxPoint x="40" y="530" />
            </Array>
          </mxGeometry>
        </mxCell>
        <mxCell id="NuBGhkhx8Y5m-b2giT-t-37" value="Update time value on 400m" style="edgeLabel;resizable=0;html=1;;align=center;verticalAlign=middle;fontSize=9;labelBorderColor=default;labelBackgroundColor=#FFF2CC;" connectable="0" vertex="1" parent="NuBGhkhx8Y5m-b2giT-t-36">
          <mxGeometry relative="1" as="geometry">
            <mxPoint x="30" as="offset" />
          </mxGeometry>
        </mxCell>
        <mxCell id="NuBGhkhx8Y5m-b2giT-t-38" value="" style="endArrow=classic;html=1;rounded=0;" edge="1" parent="NuBGhkhx8Y5m-b2giT-t-14">
          <mxGeometry width="50" height="50" relative="1" as="geometry">
            <mxPoint x="100" y="460" as="sourcePoint" />
            <mxPoint x="940" y="460" as="targetPoint" />
          </mxGeometry>
        </mxCell>
        <mxCell id="NuBGhkhx8Y5m-b2giT-t-39" value="&lt;div style=&quot;text-align: start;&quot;&gt;&lt;div&gt;PerformanceTime(FourHundredSpd = MEASURED_SPEED)&lt;/div&gt;&lt;/div&gt;" style="edgeLabel;html=1;align=center;verticalAlign=middle;resizable=0;points=[];" vertex="1" connectable="0" parent="NuBGhkhx8Y5m-b2giT-t-38">
          <mxGeometry x="-0.1423" y="-1" relative="1" as="geometry">
            <mxPoint x="60" y="-11" as="offset" />
          </mxGeometry>
        </mxCell>
        <mxCell id="NuBGhkhx8Y5m-b2giT-t-40" value="Exit Loop (TIMER_RUNING)" style="edgeLabel;resizable=0;html=1;;align=center;verticalAlign=middle;fontSize=9;labelBorderColor=default;labelBackgroundColor=#FFF2CC;" connectable="0" vertex="1" parent="NuBGhkhx8Y5m-b2giT-t-14">
          <mxGeometry x="99.99999999999977" y="570" as="geometry" />
        </mxCell>
        <mxCell id="NuBGhkhx8Y5m-b2giT-t-47" value="Precondition OperationConditions.Status == &quot;READY&quot;" style="edgeLabel;resizable=0;html=1;;align=center;verticalAlign=middle;fontSize=9;labelBorderColor=default;labelBackgroundColor=#FFF2CC;" connectable="0" vertex="1" parent="1">
          <mxGeometry x="180" y="240" as="geometry" />
        </mxCell>
        <mxCell id="NuBGhkhx8Y5m-b2giT-t-48" value="alt" style="swimlane;horizontal=0;whiteSpace=wrap;html=1;fontSize=11;" vertex="1" parent="1">
          <mxGeometry x="40" y="260" width="1120" height="70" as="geometry" />
        </mxCell>
        <UserObject label="&amp;nbsp;[ Wheel Speed &amp;gt;= 0 ]" tooltip="ㅁㅁㅁ" id="NuBGhkhx8Y5m-b2giT-t-49">
          <mxCell style="text;html=1;align=center;verticalAlign=middle;whiteSpace=wrap;rounded=0;fontSize=9;fontColor=#000000;" vertex="1" parent="NuBGhkhx8Y5m-b2giT-t-48">
            <mxGeometry x="30" width="110" height="20" as="geometry" />
          </mxCell>
        </UserObject>
        <mxCell id="NuBGhkhx8Y5m-b2giT-t-50" value="Timer Start" style="edgeLabel;resizable=0;html=1;;align=center;verticalAlign=middle;fontSize=9;labelBorderColor=default;labelBackgroundColor=#FFF2CC;" connectable="0" vertex="1" parent="NuBGhkhx8Y5m-b2giT-t-48">
          <mxGeometry x="140" y="30" as="geometry" />
        </mxCell>
        <mxCell id="NuBGhkhx8Y5m-b2giT-t-51" value="" style="endArrow=classic;html=1;rounded=0;" edge="1" parent="1">
          <mxGeometry width="50" height="50" relative="1" as="geometry">
            <mxPoint x="180" y="310" as="sourcePoint" />
            <mxPoint x="1020" y="310" as="targetPoint" />
          </mxGeometry>
        </mxCell>
        <mxCell id="NuBGhkhx8Y5m-b2giT-t-52" value="&lt;div style=&quot;text-align: start;&quot;&gt;&lt;font size=&quot;1&quot; face=&quot;Source Sans Pro, Lucida Sans Unicode, Arial, NG&quot; color=&quot;#172b4d&quot;&gt;OperationConditions(Status = &quot;RUNNING&quot;)&lt;/font&gt;&lt;/div&gt;" style="edgeLabel;html=1;align=center;verticalAlign=middle;resizable=0;points=[];" vertex="1" connectable="0" parent="NuBGhkhx8Y5m-b2giT-t-51">
          <mxGeometry x="-0.1423" y="-1" relative="1" as="geometry">
            <mxPoint x="60" y="-11" as="offset" />
          </mxGeometry>
        </mxCell>
        <mxCell id="NuBGhkhx8Y5m-b2giT-t-53" value="Performance Timer - FINISH" style="shape=link;html=1;rounded=0;fontSize=13;labelBorderColor=default;labelBackgroundColor=#E6E6E6;" edge="1" parent="1">
          <mxGeometry width="100" relative="1" as="geometry">
            <mxPoint x="40" y="1050" as="sourcePoint" />
            <mxPoint x="1160" y="1050" as="targetPoint" />
            <mxPoint as="offset" />
          </mxGeometry>
        </mxCell>
        <mxCell id="NuBGhkhx8Y5m-b2giT-t-54" value="" style="endArrow=classic;html=1;rounded=0;" edge="1" parent="1">
          <mxGeometry width="50" height="50" relative="1" as="geometry">
            <mxPoint x="180" y="1120" as="sourcePoint" />
            <mxPoint x="1020" y="1120" as="targetPoint" />
          </mxGeometry>
        </mxCell>
        <mxCell id="NuBGhkhx8Y5m-b2giT-t-55" value="&lt;div style=&quot;text-align: start;&quot;&gt;&lt;div&gt;RecPerformanceTimeList(RecPerformanceTimeList[LAP_NUMBER])&lt;/div&gt;&lt;/div&gt;" style="edgeLabel;html=1;align=center;verticalAlign=middle;resizable=0;points=[];" vertex="1" connectable="0" parent="NuBGhkhx8Y5m-b2giT-t-54">
          <mxGeometry x="-0.1423" y="-1" relative="1" as="geometry">
            <mxPoint x="60" y="-11" as="offset" />
          </mxGeometry>
        </mxCell>
        <mxCell id="NuBGhkhx8Y5m-b2giT-t-56" value="Performance Timer - STOP" style="shape=link;html=1;rounded=0;fontSize=13;labelBorderColor=default;labelBackgroundColor=#E6E6E6;" edge="1" parent="1">
          <mxGeometry width="100" relative="1" as="geometry">
            <mxPoint x="40" y="1170" as="sourcePoint" />
            <mxPoint x="1160" y="1170" as="targetPoint" />
            <mxPoint as="offset" />
          </mxGeometry>
        </mxCell>
        <mxCell id="NuBGhkhx8Y5m-b2giT-t-84" value="alt" style="swimlane;horizontal=0;whiteSpace=wrap;html=1;fontSize=11;" vertex="1" parent="1">
          <mxGeometry x="40" y="1210" width="1120" height="60" as="geometry" />
        </mxCell>
        <mxCell id="NuBGhkhx8Y5m-b2giT-t-85" value="&amp;nbsp;[ TBD : Requested by SWRC ]" style="text;html=1;align=center;verticalAlign=middle;whiteSpace=wrap;rounded=0;fontSize=9;fontColor=#FF3333;" vertex="1" parent="NuBGhkhx8Y5m-b2giT-t-84">
          <mxGeometry x="40" width="185" height="20" as="geometry" />
        </mxCell>
        <mxCell id="NuBGhkhx8Y5m-b2giT-t-89" value="" style="endArrow=none;html=1;rounded=0;startArrow=classic;startFill=1;endFill=0;" edge="1" parent="NuBGhkhx8Y5m-b2giT-t-84">
          <mxGeometry width="50" height="50" relative="1" as="geometry">
            <mxPoint x="140" y="39.6400000000001" as="sourcePoint" />
            <mxPoint x="980" y="39.6400000000001" as="targetPoint" />
          </mxGeometry>
        </mxCell>
        <mxCell id="NuBGhkhx8Y5m-b2giT-t-90" value="&lt;div style=&quot;text-align: start;&quot;&gt;&lt;div&gt;TimerReset(ReqTimerStatus = &quot;STOP&quot;)&lt;/div&gt;&lt;/div&gt;" style="edgeLabel;html=1;align=center;verticalAlign=middle;resizable=0;points=[];" vertex="1" connectable="0" parent="NuBGhkhx8Y5m-b2giT-t-89">
          <mxGeometry x="-0.1423" y="-1" relative="1" as="geometry">
            <mxPoint x="60" y="-11" as="offset" />
          </mxGeometry>
        </mxCell>
        <mxCell id="NuBGhkhx8Y5m-b2giT-t-91" value="Increase LAP_NUMBER" style="edgeLabel;resizable=0;html=1;;align=center;verticalAlign=middle;fontSize=9;labelBorderColor=default;labelBackgroundColor=#FFF2CC;" connectable="0" vertex="1" parent="1">
          <mxGeometry x="179.99999999999977" y="1090" as="geometry" />
        </mxCell>
        <mxCell id="NuBGhkhx8Y5m-b2giT-t-92" value="Performance Timer - RESET" style="shape=link;html=1;rounded=0;fontSize=13;labelBorderColor=default;labelBackgroundColor=#E6E6E6;" edge="1" parent="1">
          <mxGeometry width="100" relative="1" as="geometry">
            <mxPoint x="40" y="1340" as="sourcePoint" />
            <mxPoint x="1160" y="1340" as="targetPoint" />
            <mxPoint as="offset" />
          </mxGeometry>
        </mxCell>
        <mxCell id="NuBGhkhx8Y5m-b2giT-t-93" value="alt" style="swimlane;horizontal=0;whiteSpace=wrap;html=1;fontSize=11;" vertex="1" parent="1">
          <mxGeometry x="40" y="1380" width="1120" height="60" as="geometry" />
        </mxCell>
        <mxCell id="NuBGhkhx8Y5m-b2giT-t-94" value="&amp;nbsp;[ TBD : Requested by SWRC ]" style="text;html=1;align=center;verticalAlign=middle;whiteSpace=wrap;rounded=0;fontSize=9;fontColor=#FF3333;" vertex="1" parent="NuBGhkhx8Y5m-b2giT-t-93">
          <mxGeometry x="40" width="185" height="20" as="geometry" />
        </mxCell>
        <mxCell id="NuBGhkhx8Y5m-b2giT-t-95" value="" style="endArrow=none;html=1;rounded=0;startArrow=classic;startFill=1;endFill=0;" edge="1" parent="NuBGhkhx8Y5m-b2giT-t-93">
          <mxGeometry width="50" height="50" relative="1" as="geometry">
            <mxPoint x="140" y="39.6400000000001" as="sourcePoint" />
            <mxPoint x="980" y="39.6400000000001" as="targetPoint" />
          </mxGeometry>
        </mxCell>
        <mxCell id="NuBGhkhx8Y5m-b2giT-t-96" value="&lt;div style=&quot;text-align: start;&quot;&gt;&lt;div&gt;TimerReset(ReqTimerStatus = &quot;RESET&quot;)&lt;/div&gt;&lt;/div&gt;" style="edgeLabel;html=1;align=center;verticalAlign=middle;resizable=0;points=[];" vertex="1" connectable="0" parent="NuBGhkhx8Y5m-b2giT-t-95">
          <mxGeometry x="-0.1423" y="-1" relative="1" as="geometry">
            <mxPoint x="60" y="-11" as="offset" />
          </mxGeometry>
        </mxCell>
        <mxCell id="NuBGhkhx8Y5m-b2giT-t-97" value="" style="endArrow=classic;html=1;rounded=0;" edge="1" parent="1">
          <mxGeometry width="50" height="50" relative="1" as="geometry">
            <mxPoint x="180" y="1300" as="sourcePoint" />
            <mxPoint x="1020" y="1300" as="targetPoint" />
          </mxGeometry>
        </mxCell>
        <mxCell id="NuBGhkhx8Y5m-b2giT-t-98" value="&lt;div style=&quot;text-align: start;&quot;&gt;&lt;div&gt;OperationConditions(Status = &quot;STOP&quot;)&lt;/div&gt;&lt;/div&gt;" style="edgeLabel;html=1;align=center;verticalAlign=middle;resizable=0;points=[];" vertex="1" connectable="0" parent="NuBGhkhx8Y5m-b2giT-t-97">
          <mxGeometry x="-0.1423" y="-1" relative="1" as="geometry">
            <mxPoint x="60" y="-11" as="offset" />
          </mxGeometry>
        </mxCell>
        <mxCell id="NuBGhkhx8Y5m-b2giT-t-99" value="" style="endArrow=classic;html=1;rounded=0;" edge="1" parent="1">
          <mxGeometry width="50" height="50" relative="1" as="geometry">
            <mxPoint x="180" y="1470" as="sourcePoint" />
            <mxPoint x="1020" y="1470" as="targetPoint" />
          </mxGeometry>
        </mxCell>
        <mxCell id="NuBGhkhx8Y5m-b2giT-t-100" value="&lt;div style=&quot;text-align: start;&quot;&gt;&lt;div&gt;OperationConditions(Status = &quot;RESET&quot;)&lt;/div&gt;&lt;/div&gt;" style="edgeLabel;html=1;align=center;verticalAlign=middle;resizable=0;points=[];" vertex="1" connectable="0" parent="NuBGhkhx8Y5m-b2giT-t-99">
          <mxGeometry x="-0.1423" y="-1" relative="1" as="geometry">
            <mxPoint x="60" y="-11" as="offset" />
          </mxGeometry>
        </mxCell>
        <mxCell id="NuBGhkhx8Y5m-b2giT-t-101" value="&lt;div&gt;Clear All RecLapTimeList and LapTimer Data&lt;/div&gt;" style="edgeLabel;resizable=0;html=1;;align=center;verticalAlign=middle;fontSize=9;labelBorderColor=default;labelBackgroundColor=#FFF2CC;" connectable="0" vertex="1" parent="1">
          <mxGeometry x="179.99999999999977" y="1500" as="geometry" />
        </mxCell>
        <mxCell id="NuBGhkhx8Y5m-b2giT-t-102" value="" style="endArrow=classic;html=1;rounded=0;" edge="1" parent="1">
          <mxGeometry width="50" height="50" relative="1" as="geometry">
            <mxPoint x="180" y="1520" as="sourcePoint" />
            <mxPoint x="1020" y="1520" as="targetPoint" />
          </mxGeometry>
        </mxCell>
        <mxCell id="NuBGhkhx8Y5m-b2giT-t-103" value="&lt;div style=&quot;text-align: start;&quot;&gt;&lt;div&gt;PerformanceTime()&lt;/div&gt;&lt;/div&gt;" style="edgeLabel;html=1;align=center;verticalAlign=middle;resizable=0;points=[];" vertex="1" connectable="0" parent="NuBGhkhx8Y5m-b2giT-t-102">
          <mxGeometry x="-0.1423" y="-1" relative="1" as="geometry">
            <mxPoint x="60" y="-11" as="offset" />
          </mxGeometry>
        </mxCell>
        <mxCell id="NuBGhkhx8Y5m-b2giT-t-104" value="" style="endArrow=classic;html=1;rounded=0;" edge="1" parent="1">
          <mxGeometry width="50" height="50" relative="1" as="geometry">
            <mxPoint x="180" y="1550" as="sourcePoint" />
            <mxPoint x="1020" y="1550" as="targetPoint" />
          </mxGeometry>
        </mxCell>
        <mxCell id="NuBGhkhx8Y5m-b2giT-t-105" value="&lt;div style=&quot;text-align: start;&quot;&gt;&lt;div&gt;RecPerformanceTimeList()&lt;/div&gt;&lt;/div&gt;" style="edgeLabel;html=1;align=center;verticalAlign=middle;resizable=0;points=[];" vertex="1" connectable="0" parent="NuBGhkhx8Y5m-b2giT-t-104">
          <mxGeometry x="-0.1423" y="-1" relative="1" as="geometry">
            <mxPoint x="60" y="-11" as="offset" />
          </mxGeometry>
        </mxCell>
      </root>
    </mxGraphModel>
  </diagram>
</mxfile>
